<svg width="48" height="48" viewBox="0 0 48 48" fill="none" xmlns="http://www.w3.org/2000/svg">
<path d="M21.8624 2.48253C21.3674 2.52003 20.8949 2.58003 20.8124 2.61753C20.7299 2.65503 20.2649 2.74503 19.7849 2.81253C19.2974 2.88753 18.8999 2.96253 18.8999 2.99253C18.8999 3.03003 18.6524 3.09003 18.3599 3.14253C18.0599 3.19503 17.7149 3.28503 17.5874 3.34503C17.4674 3.39753 17.1599 3.49503 16.9124 3.57003C16.6649 3.63753 16.3949 3.74253 16.3124 3.79503C16.2299 3.85503 16.1174 3.90003 16.0574 3.90003C15.9974 3.90003 15.7949 3.96753 15.6074 4.05753C14.8274 4.41753 13.2374 5.20503 13.1999 5.25003C13.1774 5.27253 13.0424 5.35503 12.8924 5.42253C12.7424 5.49003 12.5774 5.59503 12.5249 5.66253C12.4724 5.72253 12.3974 5.77503 12.3674 5.77503C12.3299 5.77503 12.1049 5.91003 11.8649 6.08253C11.6324 6.24753 11.3249 6.45003 11.1974 6.54003C11.0624 6.62253 10.9499 6.72003 10.9499 6.75003C10.9499 6.78753 10.8899 6.83253 10.8149 6.85503C10.7474 6.87753 10.5674 7.00503 10.4249 7.12503C10.2824 7.25253 9.9974 7.50003 9.7949 7.67253C9.3899 8.01753 7.9124 9.50253 7.5149 9.95253C7.0799 10.4625 6.8999 10.6875 6.8999 10.7325C6.8999 10.755 6.8249 10.8675 6.7349 10.9725C6.3749 11.385 5.7749 12.255 5.7749 12.36C5.7749 12.3975 5.7074 12.4875 5.6324 12.555C5.5499 12.63 5.4449 12.795 5.3924 12.9225C5.3399 13.0575 5.2724 13.1775 5.2424 13.2C5.1449 13.275 4.3574 14.835 4.2674 15.1425C4.2149 15.315 4.1474 15.45 4.1174 15.45C4.0874 15.45 4.0049 15.645 3.9299 15.8775C3.8549 16.1175 3.7799 16.3275 3.7499 16.35C3.7274 16.3725 3.6449 16.605 3.5624 16.875C3.4874 17.145 3.3974 17.3925 3.3674 17.4375C3.3374 17.475 3.2549 17.7975 3.1799 18.15C3.1049 18.5025 3.0224 18.8025 2.9924 18.825C2.9399 18.87 2.6999 20.2125 2.6999 20.4975C2.6999 20.6025 2.6699 20.7 2.6324 20.715C2.5274 20.7525 2.3999 22.545 2.3999 23.97C2.3999 25.3425 2.5124 27.0075 2.6174 27.2625C2.6549 27.345 2.7449 27.81 2.8124 28.29C2.8874 28.7775 2.9624 29.175 2.9924 29.175C3.0224 29.175 3.1049 29.475 3.1799 29.85C3.2549 30.2175 3.3374 30.525 3.3674 30.525C3.3974 30.525 3.4799 30.765 3.5549 31.05C3.6299 31.3425 3.7199 31.5975 3.7574 31.62C3.7874 31.635 3.8774 31.86 3.9449 32.1C4.0124 32.3475 4.1024 32.55 4.1324 32.55C4.1699 32.55 4.1999 32.595 4.1999 32.64C4.1999 32.745 5.1749 34.74 5.2499 34.8C5.2799 34.8225 5.3624 34.9575 5.4374 35.1C5.5124 35.235 5.6099 35.3925 5.6549 35.445C5.6999 35.4975 5.8424 35.715 5.9624 35.925C6.0899 36.1425 6.2399 36.375 6.2999 36.4425C6.3599 36.51 6.4724 36.66 6.5474 36.7725C6.6974 37.005 6.6974 37.005 7.3274 37.7625C8.3024 38.94 9.3299 39.96 10.4249 40.8375C10.6124 40.9875 10.8224 41.1525 10.8899 41.2125C10.9574 41.265 11.1074 41.3775 11.2274 41.4525C11.3399 41.52 11.4524 41.61 11.4749 41.6325C11.5424 41.73 12.2924 42.225 12.3674 42.225C12.4049 42.225 12.4874 42.27 12.5399 42.33C12.5999 42.3825 12.7649 42.4875 12.8999 42.5625C13.0424 42.6375 13.1774 42.72 13.1999 42.75C13.2599 42.825 15.2549 43.8 15.3599 43.8C15.4049 43.8 15.4499 43.83 15.4499 43.8675C15.4499 43.8975 15.6074 43.9725 15.8024 44.025C16.0049 44.0775 16.2299 44.16 16.3199 44.2125C16.4024 44.265 16.6874 44.37 16.9574 44.445C17.2199 44.52 17.4524 44.6025 17.4749 44.625C17.4974 44.655 17.7824 44.7375 18.1124 44.805C18.4424 44.8725 18.7799 44.9625 18.8624 45C19.0424 45.09 20.2574 45.3 20.5499 45.3C20.6699 45.3 20.7749 45.33 20.7899 45.3675C20.8199 45.465 22.7099 45.6 23.9549 45.6C25.1999 45.6 27.1799 45.4575 27.2099 45.3675C27.2249 45.33 27.3224 45.3 27.4274 45.3C27.7199 45.3 29.0549 45.0675 29.1374 45C29.1824 44.97 29.4824 44.8875 29.8049 44.82C30.1349 44.7525 30.4349 44.67 30.4799 44.6325C30.5249 44.6025 30.7799 44.5125 31.0499 44.4375C31.3199 44.37 31.5524 44.28 31.5749 44.25C31.5974 44.22 31.8074 44.1375 32.0474 44.07C32.2799 44.0025 32.4749 43.92 32.4749 43.89C32.4749 43.86 32.6249 43.785 32.8199 43.7325C33.0074 43.68 33.1949 43.59 33.2474 43.545C33.2999 43.4925 33.4949 43.3875 33.6974 43.3125C33.8924 43.2375 34.0499 43.155 34.0499 43.125C34.0499 43.095 34.1849 43.0275 34.3499 42.975C34.5224 42.915 34.6799 42.84 34.7099 42.795C34.7399 42.75 34.8974 42.645 35.0624 42.5625C35.2274 42.48 35.4074 42.3675 35.4599 42.3225C35.5124 42.27 35.5949 42.225 35.6324 42.225C35.6699 42.225 35.7599 42.165 35.8349 42.09C35.9099 42.0225 36.0899 41.895 36.2324 41.82C36.3749 41.7375 36.5249 41.64 36.5624 41.61C37.9274 40.5375 38.4599 40.0725 39.2999 39.225C39.8549 38.6625 40.4024 38.085 40.5149 37.9425C40.6199 37.8 40.8149 37.5525 40.9424 37.3875C41.0699 37.2225 41.2349 37.0125 41.3099 36.915C41.3774 36.8175 41.4899 36.6825 41.5499 36.6075C41.6099 36.54 41.7299 36.36 41.8049 36.2175C41.8874 36.075 42.0149 35.895 42.0899 35.82C42.1649 35.7375 42.2249 35.6475 42.2249 35.6175C42.2249 35.58 42.3299 35.4075 42.4499 35.2275C42.5774 35.04 42.6749 34.8525 42.6749 34.8075C42.6749 34.7625 42.7049 34.725 42.7424 34.725C42.7799 34.725 42.8699 34.575 42.9524 34.3875C43.0274 34.2 43.1099 34.05 43.1324 34.05C43.1624 34.05 43.2449 33.8775 43.3199 33.675C43.3949 33.465 43.4774 33.3 43.5074 33.3C43.5374 33.3 43.6199 33.12 43.6949 32.9025C43.7624 32.6925 43.8449 32.4975 43.8749 32.475C43.9124 32.4525 43.9949 32.2425 44.0624 32.01C44.1299 31.77 44.2124 31.56 44.2499 31.5375C44.2799 31.515 44.3549 31.32 44.3999 31.11C44.4524 30.8925 44.5499 30.5775 44.6249 30.4125C44.6999 30.2475 44.7974 29.8725 44.8499 29.5875C44.9024 29.295 44.9699 29.0475 45.0074 29.025C45.0374 29.0025 45.1199 28.5825 45.1874 28.0875C45.2549 27.5925 45.3449 27.1275 45.3824 27.06C45.4199 26.985 45.4874 26.2725 45.5324 25.4625C45.5999 24.345 45.5999 23.655 45.5324 22.4925C45.4874 21.6675 45.4124 20.9325 45.3749 20.865C45.3374 20.7975 45.2549 20.355 45.1874 19.8825C45.1199 19.4175 45.0374 18.975 44.9999 18.9075C44.9624 18.84 44.8799 18.5325 44.8124 18.225C44.7449 17.9175 44.6624 17.6325 44.6324 17.5875C44.6024 17.55 44.5124 17.295 44.4374 17.025C44.3699 16.755 44.2799 16.5 44.2499 16.4625C44.2199 16.4175 44.1374 16.2 44.0624 15.975C43.9874 15.75 43.9049 15.5475 43.8749 15.525C43.8449 15.5025 43.7624 15.3075 43.6949 15.09C43.6199 14.88 43.5374 14.7 43.5074 14.7C43.4774 14.7 43.3949 14.5275 43.3199 14.325C43.2449 14.115 43.1624 13.95 43.1324 13.95C43.1024 13.95 43.0349 13.83 42.9824 13.6875C42.9299 13.545 42.8474 13.38 42.8024 13.3275C42.7499 13.275 42.6449 13.1025 42.5624 12.9375C42.4799 12.7725 42.3899 12.6225 42.3674 12.6C42.3449 12.5775 42.2624 12.45 42.1949 12.315C42.1274 12.1875 42.0449 12.075 42.0149 12.075C41.9849 12.075 41.9024 11.94 41.8274 11.775C41.7599 11.61 41.6699 11.475 41.6399 11.475C41.6024 11.475 41.5349 11.4 41.4899 11.3025C41.3849 11.085 40.9424 10.5375 40.0574 9.53253C39.3299 8.70753 38.8574 8.25003 37.7924 7.35753C36.9899 6.68253 36.8699 6.59253 36.6974 6.51003C36.5999 6.46503 36.5249 6.39753 36.5249 6.36753C36.5249 6.33753 36.3974 6.24753 36.2474 6.18003C36.0899 6.10503 35.9399 6.00753 35.9099 5.95503C35.8799 5.91003 35.7524 5.82753 35.6249 5.77503C35.5049 5.72253 35.3999 5.65503 35.3999 5.62503C35.3999 5.59503 35.2574 5.51253 35.0849 5.43003C34.9049 5.35503 34.7399 5.25753 34.7099 5.21253C34.6799 5.16003 34.5224 5.08503 34.3499 5.02503C34.1849 4.97253 34.0499 4.90503 34.0499 4.87503C34.0499 4.84503 33.8924 4.76253 33.6974 4.68753C33.4949 4.61253 33.2999 4.50753 33.2474 4.45503C33.1949 4.41003 33.0074 4.32003 32.8199 4.26753C32.6249 4.21503 32.4749 4.14003 32.4749 4.11753C32.4749 4.08753 32.2799 4.00503 32.0474 3.93753C31.8074 3.87003 31.5974 3.78753 31.5749 3.75753C31.5524 3.72753 31.3199 3.64503 31.0499 3.57003C30.7799 3.49503 30.5324 3.40503 30.4874 3.37503C30.4499 3.34503 30.1274 3.25503 29.7749 3.18003C29.4224 3.10503 29.1224 3.02253 29.0999 2.99253C29.0774 2.95503 28.6349 2.87253 28.1249 2.79753C27.6074 2.73003 27.1724 2.64753 27.1499 2.61753C27.0899 2.53503 24.8249 2.40003 23.7449 2.40753C23.2049 2.41503 22.3574 2.45253 21.8624 2.48253ZM25.6424 5.51253C26.1074 5.54253 26.5499 5.58753 26.6174 5.62503C26.6849 5.66253 27.1274 5.74503 27.5999 5.81253C28.0724 5.88753 28.4999 5.97003 28.5374 6.00753C28.5824 6.03753 28.8674 6.12003 29.1749 6.19503C29.4824 6.26253 29.7524 6.34503 29.7749 6.36753C29.7974 6.39753 30.0299 6.48753 30.2999 6.56253C30.5699 6.63753 30.8024 6.72753 30.8249 6.75003C30.8474 6.77253 31.0349 6.85503 31.2374 6.93753C31.4474 7.01253 31.6799 7.11753 31.7624 7.17003C31.8449 7.21503 32.0399 7.29753 32.1974 7.35003C32.3474 7.39503 32.4749 7.46253 32.4749 7.49253C32.4749 7.52253 32.6174 7.61253 32.7974 7.69503C32.9699 7.77003 33.1574 7.87503 33.2099 7.92753C33.2624 7.97253 33.4199 8.05503 33.5624 8.10753C33.7049 8.16003 33.8249 8.22753 33.8249 8.26503C33.8249 8.29503 33.9299 8.37753 34.0649 8.44503C34.1924 8.51253 34.3349 8.59503 34.3799 8.63253C34.4249 8.67002 34.6499 8.83503 34.8749 9.00003C35.3849 9.36753 35.5349 9.48753 35.9774 9.86253C36.4799 10.29 37.7924 11.6025 38.0999 11.9925C38.2424 12.1725 38.4374 12.405 38.5274 12.5175C38.8874 12.93 39.2249 13.3875 39.2249 13.455C39.2249 13.4925 39.2774 13.575 39.3374 13.6425C39.4799 13.7925 39.7874 14.25 39.9449 14.5725C40.0124 14.7 40.0949 14.8275 40.1174 14.85C40.1474 14.8725 40.2299 15.0375 40.3124 15.225C40.3949 15.4125 40.4774 15.5775 40.5074 15.6C40.5299 15.6225 40.6124 15.795 40.6874 15.99C40.7624 16.1925 40.8449 16.35 40.8749 16.35C40.9049 16.35 40.9649 16.4925 41.0174 16.665C41.0699 16.845 41.1524 17.055 41.2049 17.1375C41.2574 17.22 41.3624 17.49 41.4374 17.7375C41.5049 17.985 41.5874 18.2175 41.6249 18.2625C41.6549 18.3 41.7449 18.6075 41.8124 18.9375C41.8874 19.2675 41.9699 19.5675 41.9999 19.6125C42.0374 19.65 42.1199 20.0775 42.1874 20.55C42.2624 21.0225 42.3524 21.495 42.4049 21.5925C42.5324 21.8625 42.5249 26.34 42.3974 26.385C42.3449 26.4 42.2999 26.4975 42.2999 26.61C42.2999 26.91 42.0599 28.305 41.9999 28.35C41.9699 28.3725 41.8874 28.68 41.8124 29.0475C41.7374 29.4075 41.6549 29.7 41.6249 29.7C41.5949 29.7 41.5274 29.8575 41.4824 30.0525C41.4299 30.2475 41.3249 30.5475 41.2424 30.72C41.1674 30.9 41.0999 31.0575 41.0999 31.08C41.0999 31.1025 40.9799 31.3725 40.8374 31.68C40.6949 31.9875 40.5749 32.28 40.5749 32.325C40.5749 32.3625 40.5449 32.4 40.5149 32.4C40.4774 32.4 40.3874 32.5425 40.3049 32.715C40.2299 32.895 40.1249 33.0825 40.0724 33.135C40.0199 33.1875 39.9749 33.27 39.9749 33.3075C39.9749 33.3525 39.8774 33.5325 39.7499 33.7125C39.6299 33.8925 39.5249 34.0725 39.5249 34.1175C39.5249 34.155 39.4799 34.2225 39.4274 34.2525C39.3749 34.2825 39.2699 34.41 39.1949 34.5375C39.1124 34.6575 39.0224 34.7925 38.9849 34.8375C38.9474 34.875 38.8799 34.9725 38.8274 35.04C38.7449 35.16 38.7224 35.16 38.4374 35.025C38.2724 34.9425 38.0849 34.845 38.0249 34.8075C37.8149 34.665 36.7874 34.2 36.6974 34.2C36.6449 34.2 36.5999 34.17 36.5999 34.1325C36.5999 34.095 36.4199 34.005 36.2099 33.93C35.9924 33.8625 35.7974 33.78 35.7749 33.75C35.7524 33.72 35.5499 33.6375 35.3249 33.5625C35.0999 33.4875 34.8449 33.39 34.7624 33.3375C34.6799 33.2925 34.4624 33.2025 34.2749 33.1425C34.0874 33.09 33.9224 33.0225 33.8999 33C33.8774 32.97 33.6299 32.8875 33.3374 32.8125C33.0524 32.7375 32.7974 32.655 32.7749 32.625C32.7524 32.595 32.4824 32.5125 32.1749 32.445C31.8674 32.37 31.5824 32.2875 31.5374 32.25C31.4474 32.1825 30.3599 31.95 30.1124 31.95C30.0149 31.95 29.9249 31.92 29.9099 31.8825C29.9024 31.845 29.4674 31.755 28.9499 31.6875C28.4324 31.6125 27.9449 31.53 27.8624 31.4925C27.5999 31.38 25.7399 31.275 24.0149 31.275C22.3499 31.275 20.1749 31.395 20.0999 31.4925C20.0774 31.5225 19.6274 31.605 19.1024 31.6725C18.5699 31.7475 18.0824 31.8375 18.0149 31.875C17.9474 31.9125 17.5874 31.995 17.2124 32.0625C16.8449 32.13 16.4999 32.22 16.4624 32.25C16.4174 32.2875 16.1324 32.37 15.8249 32.445C15.5174 32.5125 15.2474 32.595 15.2249 32.625C15.2024 32.655 14.9549 32.7375 14.6624 32.8125C14.3774 32.8875 14.1224 32.97 14.0999 33C14.0774 33.0225 13.8599 33.105 13.6124 33.18C13.3649 33.255 13.1249 33.345 13.0874 33.375C13.0424 33.4125 12.8399 33.495 12.6374 33.57C12.4274 33.6375 12.2474 33.72 12.2249 33.75C12.2024 33.78 12.0074 33.8625 11.7974 33.93C11.5799 34.005 11.3999 34.095 11.3999 34.1325C11.3999 34.17 11.3549 34.2 11.3024 34.2C11.2124 34.2 10.1849 34.665 9.9749 34.8075C9.9149 34.845 9.7274 34.9425 9.5624 35.025L9.2624 35.1675L9.0899 34.965C8.9999 34.8525 8.8649 34.6575 8.7974 34.5375C8.7374 34.41 8.6324 34.2825 8.5799 34.2525C8.5199 34.2225 8.4749 34.155 8.4749 34.1175C8.4749 34.0725 8.3774 33.9 8.2574 33.7275C8.1449 33.555 8.0249 33.3375 7.9949 33.24C7.9649 33.15 7.9124 33.075 7.8749 33.075C7.8374 33.075 7.7549 32.925 7.6799 32.7375C7.6124 32.55 7.5224 32.4 7.4924 32.4C7.4549 32.4 7.4249 32.3625 7.4249 32.325C7.4249 32.28 7.3049 31.9875 7.1624 31.68C7.0199 31.3725 6.8999 31.1025 6.8999 31.08C6.8999 31.0575 6.8324 30.9 6.7574 30.72C6.6749 30.5475 6.5699 30.2475 6.5174 30.0525C6.4724 29.8575 6.4049 29.7 6.3749 29.7C6.3449 29.7 6.2624 29.4225 6.1874 29.0775C6.1199 28.74 6.0299 28.425 5.9999 28.3875C5.9624 28.3425 5.8799 27.9225 5.8124 27.45C5.7374 26.9775 5.6474 26.505 5.5949 26.4075C5.4674 26.1375 5.4749 21.585 5.6099 21.54C5.6549 21.525 5.6999 21.42 5.6999 21.3075C5.6999 21.0075 5.9174 19.7175 5.9999 19.5375C6.0374 19.455 6.1199 19.17 6.1874 18.9C6.2549 18.63 6.3599 18.3075 6.4124 18.18C6.4724 18.045 6.5624 17.7675 6.6149 17.5575C6.6599 17.3475 6.7274 17.175 6.7574 17.175C6.7874 17.175 6.8699 16.9875 6.9374 16.7625C7.0124 16.5375 7.1024 16.35 7.1324 16.35C7.1699 16.35 7.1999 16.3125 7.1999 16.26C7.1999 16.17 7.8074 14.91 7.8824 14.85C7.9049 14.8275 7.9874 14.7 8.0549 14.5725C8.1224 14.4375 8.2649 14.205 8.3624 14.0475C8.4674 13.89 8.5949 13.695 8.6474 13.62C8.9099 13.2075 9.4274 12.5325 9.8624 12.0225C10.2374 11.5725 11.7374 10.0875 12.1049 9.78753C12.2624 9.66003 12.4649 9.48753 12.5549 9.39003C12.6524 9.30003 12.7649 9.22503 12.8099 9.22503C12.8549 9.22503 12.9374 9.16503 12.9899 9.09003C13.0424 9.02253 13.2074 8.89503 13.3499 8.82003C13.4924 8.73753 13.6274 8.64753 13.6499 8.62503C13.6724 8.59503 13.7999 8.51253 13.9349 8.44503C14.0624 8.37753 14.1749 8.29503 14.1749 8.26503C14.1749 8.22753 14.2949 8.16003 14.4374 8.10753C14.5799 8.05503 14.7449 7.97253 14.7974 7.92753C14.8499 7.87503 15.0224 7.77003 15.1874 7.68753C15.3524 7.60503 15.5324 7.49253 15.5849 7.44753C15.6374 7.39503 15.7124 7.35003 15.7499 7.35003C15.7874 7.35003 16.0424 7.25253 16.3049 7.12503C16.5749 7.00503 16.8824 6.88503 16.9874 6.85503C17.0924 6.83253 17.1749 6.78753 17.1749 6.75753C17.1749 6.72753 17.4149 6.64503 17.6999 6.56253C17.9924 6.48003 18.2249 6.39753 18.2249 6.37503C18.2249 6.34503 18.5024 6.26253 18.8474 6.18753C19.1849 6.11253 19.4999 6.02253 19.5374 5.99253C19.5824 5.96253 19.9874 5.88003 20.4374 5.81253C20.8949 5.73753 21.3299 5.64753 21.4124 5.61003C21.5999 5.52753 23.6399 5.40753 24.2999 5.44503C24.5699 5.46003 25.1699 5.49003 25.6424 5.51253ZM26.0924 34.3575C26.6924 34.395 27.2549 34.4625 27.3374 34.5C27.4199 34.5375 27.8924 34.62 28.3874 34.6875C28.8824 34.755 29.3249 34.8375 29.3624 34.8675C29.4074 34.905 29.7449 34.9875 30.1124 35.0625C30.4874 35.13 30.8024 35.2125 30.8249 35.2425C30.8474 35.2725 31.1174 35.355 31.4249 35.43C31.7324 35.5125 32.0024 35.595 32.0249 35.625C32.0474 35.6475 32.2799 35.7375 32.5499 35.805C32.8199 35.88 33.1049 35.9925 33.1874 36.045C33.2699 36.105 33.3824 36.15 33.4424 36.15C33.5024 36.15 33.7649 36.255 34.0274 36.375C34.2974 36.5025 34.6124 36.6225 34.7324 36.6525C34.8524 36.675 34.9499 36.72 34.9499 36.75C34.9499 36.7875 35.1224 36.87 35.3249 36.945C35.5349 37.02 35.6999 37.1025 35.6999 37.1325C35.6999 37.155 35.8574 37.2375 36.0599 37.3125C36.2549 37.3875 36.4349 37.485 36.4649 37.5225C36.5099 37.605 36.1724 37.965 35.7074 38.325C35.5724 38.43 35.3699 38.5875 35.2649 38.685C35.1524 38.775 35.0024 38.8725 34.9349 38.895C34.8599 38.9175 34.7999 38.9625 34.7999 39C34.7999 39.0375 34.6874 39.1275 34.5599 39.195C34.4249 39.2625 34.2824 39.3675 34.2524 39.42C34.2224 39.48 34.1549 39.525 34.1174 39.525C34.0724 39.525 33.8999 39.6225 33.7274 39.7425C33.5549 39.855 33.3374 39.975 33.2474 40.005C33.1499 40.035 33.0749 40.0875 33.0749 40.1175C33.0749 40.1475 32.9249 40.23 32.7374 40.305C32.5499 40.3875 32.3999 40.47 32.3999 40.5C32.3999 40.5225 32.2349 40.605 32.0249 40.68C31.8224 40.755 31.6499 40.8375 31.6499 40.8675C31.6499 40.89 31.5074 40.9575 31.3349 41.01C31.1624 41.0625 30.8774 41.175 30.7124 41.25C30.5399 41.325 30.2474 41.43 30.0524 41.4825C29.8574 41.5275 29.6999 41.595 29.6999 41.625C29.6999 41.655 29.4224 41.7375 29.0849 41.8125C28.7399 41.88 28.4249 41.97 28.3874 42.0075C28.3424 42.0375 27.8849 42.1275 27.3749 42.2025C26.8574 42.27 26.4149 42.3675 26.3849 42.4125C26.3099 42.5175 21.6899 42.5175 21.6149 42.4125C21.5849 42.3675 21.1424 42.27 20.6249 42.2025C20.1149 42.1275 19.6574 42.0375 19.6124 42.0075C19.5749 41.97 19.2599 41.88 18.9224 41.8125C18.5774 41.7375 18.2999 41.655 18.2999 41.625C18.2999 41.6025 18.1199 41.535 17.9099 41.475C17.6924 41.4225 17.3999 41.3175 17.2649 41.2425C17.1299 41.175 16.8674 41.07 16.6799 41.0175C16.4999 40.965 16.3499 40.8975 16.3499 40.8675C16.3499 40.8375 16.1849 40.755 15.9749 40.68C15.7724 40.605 15.5999 40.5225 15.5999 40.4925C15.5999 40.47 15.4499 40.3875 15.2624 40.32C15.0749 40.245 14.9249 40.1625 14.9249 40.125C14.9249 40.0875 14.8499 40.035 14.7599 40.005C14.6624 39.975 14.4449 39.855 14.2724 39.7425C14.0999 39.6225 13.9274 39.525 13.8824 39.525C13.8449 39.525 13.7774 39.48 13.7474 39.42C13.7174 39.3675 13.6049 39.2775 13.4999 39.225C13.3349 39.135 12.8999 38.82 12.6299 38.5875C12.5774 38.5425 12.4274 38.43 12.2999 38.325C11.8349 37.9725 11.4899 37.605 11.5349 37.5225C11.5649 37.485 11.7449 37.3875 11.9474 37.3125C12.1424 37.2375 12.2999 37.155 12.2999 37.1325C12.2999 37.1025 12.4724 37.02 12.6749 36.945C12.8849 36.87 13.0499 36.7875 13.0499 36.75C13.0499 36.72 13.1474 36.675 13.2674 36.6525C13.3874 36.6225 13.7024 36.51 13.9649 36.3825C14.2199 36.2625 14.5499 36.1425 14.6849 36.1125C14.8124 36.0825 14.9249 36.0375 14.9249 36C14.9249 35.97 15.1649 35.88 15.4499 35.805C15.7424 35.73 15.9749 35.6475 15.9749 35.625C15.9749 35.595 16.2449 35.5125 16.5749 35.43C16.9049 35.355 17.1749 35.265 17.1749 35.2425C17.1749 35.2125 17.4899 35.1375 17.8724 35.0625C18.2474 34.9875 18.5999 34.905 18.6374 34.8675C18.6824 34.8375 19.1399 34.755 19.6499 34.6875C20.1674 34.62 20.6549 34.53 20.7374 34.4925C21.1574 34.305 24.3074 34.2225 26.0924 34.3575Z" fill="#365665"/>
<path d="M22.7625 10.7325C22.4325 10.77 22.095 10.83 22.0125 10.8675C21.93 10.905 21.675 10.98 21.45 11.0325C21.225 11.0775 20.8875 11.1825 20.7 11.265C20.22 11.475 19.2525 11.9475 19.1625 12.015C18.75 12.33 18.3675 12.6 18.33 12.6C18.3 12.6 18.21 12.675 18.12 12.765C18.03 12.8625 17.82 13.065 17.655 13.215C17.145 13.6875 16.5375 14.4225 16.305 14.85C16.23 14.9925 16.14 15.1275 16.11 15.15C16.035 15.21 15.54 16.29 15.4875 16.515C15.4575 16.635 15.405 16.725 15.375 16.725C15.345 16.725 15.2625 17.0175 15.1875 17.3775C15.12 17.745 15.0225 18.12 14.9775 18.2175C14.8575 18.465 14.8575 21.135 14.9775 21.3825C15.0225 21.48 15.105 21.78 15.15 22.05C15.195 22.32 15.285 22.635 15.3375 22.7625C15.3975 22.8825 15.5025 23.1525 15.57 23.3625C15.6375 23.565 15.72 23.7525 15.75 23.775C15.78 23.7975 15.8775 23.9625 15.96 24.15C16.1625 24.57 16.395 24.96 16.5375 25.1025C16.5975 25.1625 16.65 25.2375 16.65 25.26C16.65 25.3125 16.725 25.41 17.3475 26.1C17.67 26.46 18.69 27.3 18.8025 27.3C18.855 27.3 18.9 27.33 18.9 27.3675C18.9 27.405 18.99 27.4875 19.11 27.5475C19.9575 28.005 20.4075 28.2225 20.7 28.32C20.8875 28.38 21.105 28.4625 21.1875 28.5C21.405 28.605 22.3875 28.8 22.695 28.8C22.8375 28.8 22.95 28.83 22.95 28.875C22.95 28.92 23.3475 28.95 24 28.95C24.6525 28.95 25.05 28.92 25.05 28.875C25.05 28.83 25.17 28.8 25.3125 28.8C25.62 28.8 26.7975 28.575 26.85 28.5075C26.8725 28.4775 27.0375 28.41 27.225 28.35C27.5175 28.26 28.1925 27.9375 28.8 27.5925C29.2875 27.3225 30.285 26.52 30.6675 26.085C30.7875 25.95 30.99 25.7175 31.1175 25.575C31.245 25.4325 31.35 25.29 31.35 25.26C31.35 25.2375 31.4025 25.1625 31.4625 25.1025C31.6049 24.96 31.8375 24.57 32.04 24.15C32.1224 23.9625 32.22 23.7975 32.25 23.775C32.28 23.7525 32.37 23.535 32.445 23.2875C32.52 23.04 32.61 22.815 32.6475 22.7925C32.6775 22.77 32.7675 22.4625 32.8425 22.1175C32.9174 21.7725 33.0075 21.42 33.045 21.3375C33.1425 21.1125 33.1275 18.435 33.0225 18.2175C32.9775 18.12 32.88 17.745 32.8125 17.3775C32.7375 17.0175 32.655 16.725 32.625 16.725C32.595 16.725 32.5125 16.5225 32.4375 16.275C32.3625 16.0275 32.28 15.825 32.25 15.825C32.2275 15.825 32.16 15.705 32.1075 15.5625C32.055 15.42 31.9725 15.2625 31.9275 15.21C31.875 15.1575 31.77 14.985 31.6875 14.8275C31.6049 14.6775 31.5225 14.55 31.5 14.55C31.4775 14.55 31.395 14.4375 31.3125 14.31C31.1775 14.07 29.76 12.6 29.67 12.6C29.6325 12.6 29.1975 12.2925 28.8375 12.015C28.68 11.8875 27.4575 11.325 27.3525 11.325C27.285 11.325 27.225 11.295 27.21 11.25C27.2025 11.2125 26.955 11.1225 26.6625 11.055C26.3775 10.9875 26.07 10.905 25.9875 10.8675C25.59 10.6875 23.895 10.6125 22.7625 10.7325ZM25.2675 13.8525C25.29 13.8825 25.545 13.9725 25.8375 14.0475C26.1225 14.1225 26.3775 14.205 26.4 14.235C26.4225 14.265 26.5875 14.355 26.775 14.4375C26.9625 14.52 27.1425 14.625 27.1725 14.6775C27.2025 14.73 27.2775 14.775 27.3375 14.775C27.495 14.775 28.6875 15.93 28.9425 16.335C29.07 16.53 29.1975 16.725 29.235 16.7625C29.2725 16.8075 29.3625 17.0025 29.4375 17.1975C29.5125 17.3925 29.595 17.55 29.625 17.55C29.655 17.55 29.7375 17.8275 29.805 18.165C29.88 18.51 29.97 18.8475 30.0075 18.915C30.09 19.08 30.0975 20.7 30.015 20.7C29.985 20.7 29.91 20.9475 29.865 21.2475C29.8125 21.555 29.7225 21.8625 29.67 21.945C29.6175 22.02 29.5275 22.2075 29.475 22.35C29.415 22.4925 29.2725 22.755 29.16 22.92C29.0475 23.0925 28.95 23.2725 28.95 23.3175C28.95 23.3625 28.92 23.4 28.8825 23.4C28.845 23.4 28.6875 23.565 28.5375 23.7675C28.38 23.97 28.0875 24.2625 27.87 24.42C27.66 24.5775 27.4725 24.7275 27.45 24.7575C27.4275 24.78 27.2925 24.8625 27.15 24.945C27.0075 25.02 26.85 25.125 26.805 25.1625C26.76 25.2075 26.5725 25.29 26.3925 25.35C26.2125 25.41 26.0475 25.4775 26.025 25.5075C25.935 25.635 24.7725 25.8 24 25.8C23.2275 25.8 22.065 25.635 21.975 25.5075C21.9525 25.4775 21.7875 25.41 21.6075 25.35C21.4275 25.29 21.24 25.2075 21.195 25.1625C21.15 25.125 20.9925 25.02 20.85 24.945C20.4975 24.75 19.725 24.1125 19.5375 23.8725C19.455 23.7675 19.32 23.6025 19.2375 23.52C19.155 23.43 19.02 23.2275 18.9375 23.0775C18.855 22.9275 18.7725 22.8 18.7425 22.8C18.72 22.8 18.6375 22.6425 18.5625 22.44C18.4875 22.245 18.3825 22.02 18.33 21.945C18.2775 21.8625 18.1875 21.555 18.135 21.2475C18.09 20.9475 18.015 20.7 17.985 20.7C17.9025 20.7 17.91 19.08 17.9925 18.915C18.03 18.8475 18.12 18.51 18.195 18.165C18.2625 17.8275 18.345 17.55 18.375 17.55C18.405 17.55 18.4875 17.3925 18.5625 17.1975C18.6375 17.0025 18.7275 16.8075 18.765 16.7625C18.8025 16.725 18.93 16.53 19.0575 16.335C19.3125 15.93 20.505 14.775 20.6625 14.775C20.7225 14.775 20.7975 14.73 20.8275 14.6775C20.8575 14.625 21.0375 14.52 21.225 14.4375C21.4125 14.355 21.5775 14.265 21.6 14.235C21.6225 14.205 21.8775 14.1225 22.1625 14.0475C22.455 13.9725 22.7025 13.89 22.725 13.86C22.7475 13.8375 22.8825 13.7925 23.025 13.7775C23.415 13.7175 25.215 13.7775 25.2675 13.8525Z" fill="#365665"/>
</svg>
