<svg width="76" height="63" viewBox="0 0 76 63" fill="none" xmlns="http://www.w3.org/2000/svg">
<path fill-rule="evenodd" clip-rule="evenodd" d="M2.89565 0.340429C1.89768 1.02713 1.89788 1.02546 1.78287 11.7956L1.67401 22.0106L0.832006 23.7826C-0.559178 26.7103 -0.311755 27.7675 2.38382 30.4156C5.45691 33.4347 8.33434 35.2517 10.0302 35.2438C11.2623 35.2382 12.5624 34.6715 13.2882 33.8241C14.7636 32.1015 14.7857 29.6985 13.3766 24.2074C12.8334 22.0906 12.3284 19.8525 12.2545 19.234C12.1416 18.2909 12.0822 18.1718 11.887 18.4964C11.4554 19.2138 11.6478 22.6633 12.263 25.2419C13.0885 28.7016 13.2075 30.7344 12.6564 31.9581C11.9097 33.6165 10.4379 34.1564 8.71036 33.4059C6.79037 32.5714 2.80929 29.1957 1.8512 27.5896C1.17577 26.4574 1.21864 26.2807 3.22669 21.9324C4.44938 19.2849 4.80333 18.7164 5.91569 17.6136C8.79928 14.755 13.8392 13.5349 18.694 14.5201C21.9527 15.1813 23.5137 16.0628 24.2888 17.6792C24.939 19.0349 25.6944 19.7871 26.6629 20.0433C27.1098 20.1615 29.3899 20.53 31.7301 20.8623C34.07 21.1946 36.1139 21.572 36.272 21.7008C37.0826 22.3617 36.7168 24.3529 35.2237 27.407C34.0897 29.7271 32.9084 31.0869 31.3958 31.8138C30.4269 32.2796 29.8143 32.3923 27.3916 32.5508C23.9353 32.7768 22.5265 33.2243 21.0755 34.5579C19.3369 36.1554 17.8331 39.7609 17.6658 42.7324C17.6266 43.4295 17.4386 43.8548 16.8824 44.5044C15.762 45.813 14.7146 47.4934 13.9604 49.1925L13.2767 50.7324L13.0429 49.8179C11.6432 44.3443 9.29922 39.8868 5.65595 35.7696C4.32376 34.264 2.21555 32.3298 1.90701 32.3298C1.84038 32.3298 1.78606 38.7323 1.78627 46.5578C1.78648 59.686 1.81513 60.8423 2.15762 61.5155C2.85046 62.878 3.32727 62.9741 9.3998 62.9743L14.7857 62.9748L14.6543 62.193C14.5822 61.7631 14.4113 60.4062 14.2745 59.1777C13.5625 52.7821 15.894 46.7252 20.3192 43.4739C21.6397 42.5035 24.9553 40.8074 26.0278 40.5535L26.6097 40.4159L26.6644 51.6432L26.7194 62.8705L34.5177 62.9252L42.3161 62.98L42.3012 43.4333C42.2929 32.6827 42.2043 23.6992 42.1039 23.4699C41.9524 23.1236 41.9191 23.1709 41.9065 23.7498C41.8985 24.1332 41.6956 25.3997 41.4558 26.5642C40.8247 29.6293 39.7137 31.7805 37.7854 33.6703C35.7209 35.6935 33.5408 36.7765 28.7306 38.168C24.3913 39.4234 22.4486 40.182 20.6536 41.3217C19.9366 41.777 19.3178 42.1181 19.2786 42.0795C19.1519 41.955 19.8655 39.1232 20.1726 38.5318C20.4607 37.9772 20.5267 37.9585 22.1995 37.9585C23.6321 37.9585 24.5861 37.7771 27.7642 36.9009C32.1101 35.7028 34.0178 34.8833 35.8266 33.4376C38.3361 31.4319 39.5507 28.8726 39.9747 24.6973C40.1016 23.449 40.2957 21.5305 40.4065 20.4341C40.6136 18.382 41.229 16.0521 41.748 15.3548C41.9225 15.1203 42.1788 15.0104 42.377 15.0852C42.561 15.1547 43.4104 16.0471 44.2645 17.0686L45.8174 18.9261L48.4739 18.9048C51.1052 18.8838 51.1445 18.8904 52.6118 19.6132C53.8103 20.2036 54.3241 20.6253 55.3027 21.8223C56.2948 23.0363 56.7417 23.3998 57.7897 23.8464C59.2492 24.4682 59.4324 24.8172 59.2002 26.5365C58.8849 28.8705 57.7838 30.0494 55.2204 30.7971C53.8674 31.192 52.6774 32.2616 52.0643 33.6344C51.5069 34.8827 51.4125 36.9042 51.735 40.6867C52.0601 44.5002 51.1888 47.0436 48.1792 51.066C46.2271 53.675 45.4853 54.94 44.8805 56.6911C44.3581 58.2042 43.9507 60.8361 44.0514 62.0483C44.1168 62.8338 44.1552 62.8735 44.9155 62.9352L45.7113 63V61.3299C45.7113 57.979 46.5594 55.8508 49.494 51.8383C52.2689 48.0438 52.9859 46.4123 53.3034 43.1702L53.4566 41.6067L56.3213 41.4653C64.5044 41.0613 70.5472 37.3506 73.7431 30.7663C76.5535 24.9765 76.7551 17.5097 74.2584 11.6801C71.8707 6.10523 67.4221 2.40365 61.0485 0.688365L58.9738 0.130086L42.7957 0.0650416L26.6175 0L26.5623 9.44178L26.5072 18.8836L25.7265 17.4068C24.5462 15.1741 23.2369 14.2255 20.1412 13.3602L18.868 13.0043L18.7619 7.29246C18.687 3.25566 18.5775 1.44615 18.3888 1.12219C17.749 0.0233476 17.7034 0.0170946 10.2739 0.0170946C4.37511 0.0170946 3.29692 0.0644161 2.89565 0.340429ZM56.0004 13.1675C57.4402 13.6968 58.6561 14.971 59.2832 16.6073C59.6855 17.658 59.7436 18.151 59.6736 19.9259C59.6284 21.0725 59.4731 22.2216 59.3284 22.4794C59.075 22.9308 59.0356 22.9364 58.2767 22.6329C57.8432 22.4594 57.2497 22.0429 56.9579 21.7073C56.6661 21.3716 56.0098 20.6182 55.4996 20.0331C54.4832 18.8673 53.0795 18.0628 51.471 17.7238C50.4919 17.5177 50.4238 17.4599 50.3018 16.7349C50.2305 16.3115 50.1711 15.6312 50.1698 15.223C50.1685 14.8151 50.0298 14.2991 49.8617 14.0765C49.4129 13.4827 48.9828 13.8198 47.6361 15.8209L46.4841 17.5329L45.8488 16.7488C45.4993 16.3177 44.6093 15.374 43.8709 14.6518C42.6658 13.4732 42.3473 12.9816 42.6163 12.7164C42.6649 12.6687 45.4418 12.657 48.7873 12.6908C54.2496 12.746 54.9855 12.7946 56.0004 13.1675ZM42.3386 17.6446C42.2108 18.0968 42.1058 18.8769 42.1051 19.378C42.1041 20.1617 42.1482 20.2534 42.4199 20.032C42.6726 19.826 42.9011 19.8396 43.5628 20.0996C44.0177 20.2784 44.4468 20.3691 44.516 20.3011C44.6541 20.1652 43.599 18.1418 42.9677 17.3319L42.5707 16.8226L42.3386 17.6446ZM20.1562 18.6899C19.7617 19.0776 19.717 20.0512 20.0775 20.4054C20.4921 20.8127 21.6856 20.7145 21.9374 20.2524C22.6256 18.989 21.1601 17.7038 20.1562 18.6899Z" fill="black"/>
</svg>
