<svg width="94" height="72" viewBox="0 0 94 72" fill="none" xmlns="http://www.w3.org/2000/svg">
<path d="M57.2952 0H54.6095H51.0286L45.6572 0.683535L42.0762 2.0506L40.2857 2.73414L36.7048 4.78474L32.2286 10.253L29.5429 15.7213L28.6476 19.8225V22.5566L25.9619 25.2908L24.1714 28.0249L21.4857 30.0755L17.0095 32.1261L11.6381 34.1767L6.26667 38.9615L2.68572 42.3792L0 47.1639V52.6322L0.895238 58.784L2.68572 62.2017L5.37143 64.9358L9.84762 68.3535L15.2191 71.0876L19.6952 72L26.8572 71.7712L34.0191 71.0876L37.0655 69.7206L42.0762 66.9864L47.4476 64.2523L52.819 62.2017H59.9809H67.1428H70.7238H75.2H77.8857L80.5714 60.8346L85.0476 58.1005L90.419 52.6322L93.1048 48.531L94 42.3792V37.5944V30.7591L93.1048 25.2908L90.419 19.8225L89.5238 19.139C89.5238 18.9111 89.3448 18.182 88.6286 17.0884C89.3448 16.5415 84.1524 11.8479 81.4667 9.56949L77.8857 6.83535C76.4533 5.74169 75.4984 5.46828 75.2 5.46828C74.3047 5.01259 72.1562 3.9645 70.7238 3.41767C69.2914 2.87085 67.7397 1.82276 67.1428 1.36707L60.8762 0.683535L57.2952 0Z" fill="#8AD8FF"/>
</svg>
