<svg width="64" height="54" viewBox="0 0 64 54" fill="none" xmlns="http://www.w3.org/2000/svg">
<path d="M3.69231 13.9855C4.30769 12.6887 6.27692 9.65059 9.23077 7.87217L14.7692 4.53763L18.4615 3.42612L28.9231 0.647332L32 0L41.8462 0.399374L46.1538 1.75886L53.5385 5.0934L57.8462 7.87218L60.3077 10.651L63.3846 14.5413L64 16.7643V18.4316L63.8181 20.6546L63.3846 22.3219L61.5385 25.1006L59.0769 28.4352L57.8462 32.8812L57.2308 35.1043V37.3273L57.8462 39.5503V42.3291L57.2308 44.5521L56 46.7752L54.7692 49.5539L53.5385 50.6655L51.0769 52.3327L48 54H44.9231H42.4615L40 53.4442L38.1538 52.3327L35.0769 50.6655L33.2308 48.4424L31.3846 46.7752L29.5385 45.1079L27.6923 43.4406C27.4872 43.0701 26.7077 42.218 25.2308 41.7733C23.7538 41.3287 21.7436 40.8471 20.9231 40.6618H18.4615C16.8205 40.6618 13.1692 40.5507 11.6923 40.1061C10.2154 39.6615 8.20513 38.8093 7.38462 38.4388L4.30769 36.7715L2.46154 34.8334L1.23077 32.8812L0 30.6582V26.7679V22.8776V21.2103L0.0895975 19.5431L0.0974825 19.3963L0.301957 19.0886L3.69231 13.9855Z" fill="#8AD8FF"/>
</svg>
