<svg width="707" height="788" viewBox="0 0 707 788" fill="none" xmlns="http://www.w3.org/2000/svg">
<g filter="url(#filter0_d_43_76)">
<path d="M172.639 66.7706L146.445 66.9928L127.788 68.9081C127.407 68.9473 125.702 69.5638 121.939 71.7159C118.176 73.868 113.023 75.3579 110.916 75.8338L101.509 81.2141C98.349 81.928 91.8752 83.5534 91.2575 84.3439L86.6255 90.2726L79.3548 99.5787L75.1172 108.333L72.2443 122.001L70 128.204L71.0588 140.17L76.115 158.442L82.2423 179.142L93.8392 200.933L111.055 225.522L122.437 237.597L143.585 260.485L172.039 290.672L188.34 309.773L208.787 336.887L222 359.94L229.45 373.717L236.272 394.96L242.249 413.951L244.224 431.407L245.354 446.611L246.413 458.578L246.186 472.189L246.143 482.236L247.974 493.214L249.876 507.431L249.391 521.373L249.606 531.089L252.209 541.079L256.428 552.331L259.031 562.321L261.634 572.311L265.008 581.313L269.969 589.962L276.534 599.865L282.296 609.141L290.446 618.691L296.981 626.979L305.903 635.541L313.21 642.841L329.367 655.465L343.909 666.826L355.991 674.674L373.692 685.321L392.937 693.992L408.951 700.138L430.512 705.845L450.458 710.289L467.944 711.22L484.658 713.14L501.3 711.821L521.773 710.312L533.741 706.932L543.993 703.803L552.628 699.41L562.107 697.269L574.675 691.174L584.154 689.033L596.721 682.939L606.057 674.32L616.093 661.474L626.272 655.106L639.396 638.308L650.061 617.997L659.11 596.424L665.914 581.053L668.787 567.385L673.833 544.275L675.09 529.345L676.419 517.653L676.06 501.46L673.242 481.754L669.581 459.798L664.303 436.58L650.66 394.095L644.826 381.58L634.001 358.802L624.091 341.512L615.869 328.723L610.107 319.447L598.653 304.133L590.503 294.583C588.068 292.15 582.213 285.878 578.278 280.258L570.899 269.719L556.214 251.881L533.523 230.97L483.435 191.837L461.659 176.415L439.954 164.231L422.253 153.584L389.31 135.802L362.758 119.832L345.129 112.423C341.125 110.886 329.269 106.079 313.873 99.1425L294.628 90.4715L273.066 84.765L255.509 80.595L240.339 76.6992L218.777 70.9927L194.056 66L172.639 66.7706Z" fill="#8AD8FF"/>
</g>
<defs>
<filter id="filter0_d_43_76" x="0" y="0" width="746.419" height="787.14" filterUnits="userSpaceOnUse" color-interpolation-filters="sRGB">
<feFlood flood-opacity="0" result="BackgroundImageFix"/>
<feColorMatrix in="SourceAlpha" type="matrix" values="0 0 0 0 0 0 0 0 0 0 0 0 0 0 0 0 0 0 127 0" result="hardAlpha"/>
<feOffset dy="4"/>
<feGaussianBlur stdDeviation="35"/>
<feComposite in2="hardAlpha" operator="out"/>
<feColorMatrix type="matrix" values="0 0 0 0 0.541176 0 0 0 0 0.847059 0 0 0 0 1 0 0 0 0.8 0"/>
<feBlend mode="normal" in2="BackgroundImageFix" result="effect1_dropShadow_43_76"/>
<feBlend mode="normal" in="SourceGraphic" in2="effect1_dropShadow_43_76" result="shape"/>
</filter>
</defs>
</svg>
