<svg width="93" height="84" viewBox="0 0 93 84" fill="none" xmlns="http://www.w3.org/2000/svg">
<path d="M87.0241 76.0277C82.0203 82.1808 68.571 90.664 54.8041 75.3715C45.8838 65.4628 43.9044 56.0474 44.3357 49.1691C26.4892 51.5043 16.3974 48.4789 13.2803 46.2963C8.50409 43.1875 -0.757667 35.7602 0.405289 30.9217C1.85898 24.8736 -2.74374 19.5309 2.8913 6.51827C7.39933 -3.89188 24.5151 0.46141 32.5094 3.93932C40.1927 7.19944 55.737 16.2465 56.4473 26.3536C56.5935 28.4344 56.7758 30.3347 56.979 32.0552C62.2193 30.1172 69.9898 30.1834 81.0315 37.9149C98.5741 50.1983 92.336 68.4415 87.0241 76.0277Z" fill="#8AD8FF"/>
</svg>
