<svg width="104" height="53" viewBox="0 0 104 53" fill="none" xmlns="http://www.w3.org/2000/svg">
<path d="M51.6886 53L67.8802 51.7381L77.8443 49.3627C78.6747 49.3133 80.4599 49.0881 80.9581 48.5833C81.4563 48.0786 84.9022 47.5317 86.5629 47.3214L91.5449 44.7976L95.9042 41.0119L100.263 36.5952L102.132 33.4405L104 29.0238V23.9762V18.9286L102.754 14.5119L100.263 9.46429L97.1497 5.67857L94.6587 3.78572L90.9222 1.89286L87.1856 0.630955L83.4491 0L77.8443 0.630955C76.3912 1.05159 73.6096 1.89286 74.1078 1.89286C74.606 1.89286 71.4092 3.15476 69.7485 3.78572L64.7665 5.67857L59.1617 8.20238L54.8024 10.0952L49.8204 11.9881L46.0838 13.881H41.7245H35.497H29.8922C28.8543 13.881 25.782 13.7548 21.7964 13.25C17.8108 12.7452 16.8144 13.0397 16.8144 13.25L12.4551 13.881L8.71856 15.1429L6.22754 17.0357L4.35928 18.9286L2.49101 20.8214L0.622749 23.9762L-7.62939e-06 27.7619V31.5476L0.622749 35.3333L2.49101 38.4881L3.73653 40.381L8.0958 44.1667L14.3233 47.3214L21.7964 49.8452L29.8922 52.369L36.7425 53H51.6886Z" fill="#8AD8FF"/>
</svg>
